<svg width="32" height="22" viewBox="0 0 32 22" fill="none" xmlns="http://www.w3.org/2000/svg">
<rect x="0.5" y="0.5" width="31" height="21" rx="3.5" fill="white"/>
<rect x="0.5" y="0.5" width="31" height="21" rx="3.5" stroke="#F2F4F7"/>
<path fill-rule="evenodd" clip-rule="evenodd" d="M16 16.0118C14.8379 17.0172 13.3305 17.6242 11.6834 17.6242C8.00802 17.6242 5.02856 14.6023 5.02856 10.8746C5.02856 7.14689 8.00802 4.125 11.6834 4.125C13.3305 4.125 14.8379 4.73196 16 5.73739C17.1621 4.73196 18.6695 4.125 20.3166 4.125C23.992 4.125 26.9714 7.14689 26.9714 10.8746C26.9714 14.6023 23.992 17.6242 20.3166 17.6242C18.6695 17.6242 17.1621 17.0172 16 16.0118Z" fill="#ED0006"/>
<path fill-rule="evenodd" clip-rule="evenodd" d="M16 16.0118C17.4309 14.7738 18.3382 12.9317 18.3382 10.8746C18.3382 8.81752 17.4309 6.97538 16 5.73739C17.1621 4.73196 18.6695 4.125 20.3166 4.125C23.992 4.125 26.9714 7.14689 26.9714 10.8746C26.9714 14.6023 23.992 17.6242 20.3166 17.6242C18.6695 17.6242 17.1621 17.0172 16 16.0118Z" fill="#F9A000"/>
<path fill-rule="evenodd" clip-rule="evenodd" d="M16 16.0118C17.4309 14.7738 18.3382 12.9317 18.3382 10.8746C18.3382 8.81755 17.4309 6.97542 16 5.73743C14.5692 6.97542 13.6619 8.81755 13.6619 10.8746C13.6619 12.9317 14.5692 14.7738 16 16.0118Z" fill="#FF5E00"/>
</svg>
